<?xml version="1.0" encoding="utf-8"?>
<!-- Generator: Adobe Illustrator 26.0.0, SVG Export Plug-In . SVG Version: 6.00 Build 0)  -->
<svg version="1.1" id="Capa_1" fill="#EEEEEE" xmlns="http://www.w3.org/2000/svg" xmlns:xlink="http://www.w3.org/1999/xlink" x="0px" y="0px"
	 viewBox="0 0 150 150" style="enable-background:new 0 0 150 150;" xml:space="preserve">
<g>
	<path d="M137.23,58.03c0,11.49,0.02,22.97-0.01,34.46c-0.02,9.93-6.52,16.45-16.39,16.45c-19.26,0.01-38.52,0.01-57.78,0
		c-9.43,0-16.22-6.36-16.28-15.79c-0.14-23.41-0.14-46.83,0-70.24c0.06-9.44,6.84-15.78,16.28-15.78c19.26-0.01,38.52-0.01,57.78,0
		c9.86,0,16.37,6.52,16.39,16.45C137.24,35.06,137.23,46.54,137.23,58.03z M128.71,58.14c0-11.57,0.01-23.14-0.01-34.71
		c-0.01-5.03-2.81-7.81-7.9-7.81c-19.16-0.01-38.33-0.01-57.49,0c-5.26,0-8,2.68-8.01,7.99c-0.03,22.96-0.03,45.92,0,68.88
		c0.01,5.28,2.77,7.95,8.05,7.95c19.07,0.01,38.15,0.01,57.22,0c5.42,0,8.12-2.71,8.12-8.12C128.72,80.93,128.71,69.54,128.71,58.14
		z"/>
	<path d="M12.79,89.08c0-12.28-0.03-24.56,0.01-36.84c0.03-10.64,7.03-17.31,17.66-16.92c3.12,0.11,4.95,1.71,4.95,4.33
		c0,2.64-1.76,4.13-4.98,4.21c-6.93,0.17-9.07,2.37-9.07,9.38c0,24.03,0,48.06,0,72.09c0,6.7,2.38,9.05,9.09,9.05
		c22.35,0,44.7,0,67.06,0c6,0,8.48-2.45,8.6-8.49c0.08-3.81,1.89-6.07,4.69-5.65c2.28,0.34,3.55,1.76,3.84,4.08
		c1.31,10.27-5.88,18.54-16.18,18.54c-23.06,0.01-46.12,0.01-69.18,0c-9.84,0-16.42-6.5-16.48-16.42
		C12.73,114,12.79,101.54,12.79,89.08z"/>
</g>
</svg>
