<?xml version="1.0" encoding="utf-8"?>
<!-- Generator: Adobe Illustrator 26.0.0, SVG Export Plug-In . SVG Version: 6.00 Build 0)  -->
<svg version="1.1" id="Capa_1" fill="#EEEEEE" xmlns="http://www.w3.org/2000/svg" xmlns:xlink="http://www.w3.org/1999/xlink" x="0px" y="0px"
	 viewBox="0 0 512 512" style="enable-background:new 0 0 512 512;" xml:space="preserve">
<g>
	<path d="M512.25,256.7c-0.25,0.89-0.53,1.77-0.73,2.67c-1.46,6.46-6.75,11.94-13.4,12.27c-10.42,0.52-20.92,0.72-31.33,0.1
		c-9.02-0.54-15.09-8.43-14.44-17.13c0.67-8.83,7.52-15.06,16.66-15.09c8.52-0.02,17.04-0.01,25.56,0
		c9.6,0.01,15.4,4.91,17.18,14.48c0.05,0.27,0.33,0.5,0.5,0.75C512.25,255.41,512.25,256.05,512.25,256.7z"/>
	<path d="M254.38,512c-0.81-0.25-1.6-0.53-2.42-0.74c-7.1-1.83-12.06-7.97-12.13-15.32c-0.09-9.39-0.11-18.79,0.01-28.18
		c0.1-8.16,6.65-14.99,14.56-15.46c9.13-0.55,16.96,4.95,17.48,13.56c0.65,10.74,0.59,21.58-0.04,32.32
		c-0.4,6.89-5.23,11.09-11.8,13.07c-0.81,0.24-1.61,0.49-2.42,0.74C256.54,512,255.46,512,254.38,512z"/>
	<path d="M-0.25,255.41c0.29-1.23,0.57-2.47,0.89-3.7c1.73-6.57,7.22-11.64,14.08-11.88c10.11-0.36,20.26-0.43,30.37,0.01
		c8.54,0.37,14.83,7.88,14.59,16.35c-0.25,8.7-6.97,15.75-15.55,15.91c-9.48,0.17-18.97,0.15-28.45,0.01
		c-7.45-0.11-13.78-5.67-15.26-13.02c-0.16-0.81-0.44-1.59-0.67-2.38C-0.25,256.27-0.25,255.84-0.25,255.41z"/>
	<path d="M255.88,413.18c-88.84-0.05-158.86-73.37-157.21-160.39c1.59-83.74,69.94-154.33,157.44-154.3
		c88.69,0.02,159.2,73.29,157.2,161.02C411.41,343.03,343.12,413.2,255.88,413.18z"/>
	<path d="M272.2,29.85c0,4.42,0.06,8.84-0.01,13.26c-0.15,9.39-7.36,16.61-16.38,16.49c-8.87-0.12-16.05-7.28-16.18-16.42
		c-0.13-8.94-0.13-17.89,0-26.84c0.14-9.46,7.22-16.39,16.44-16.34c9.19,0.05,16.02,7.05,16.13,16.59
		C272.24,21.01,272.2,25.43,272.2,29.85z"/>
	<path d="M119.5,48.33c0.49-7.39,5.09-13.57,11.95-15.59c6.86-2.03,14.43,0.46,18.15,6.52c5.07,8.26,9.96,16.64,14.56,25.17
		c4.15,7.7,1.06,17.2-6.54,21.53c-7.4,4.22-17.08,1.99-21.61-5.38c-5.01-8.17-9.74-16.51-14.35-24.92
		C120.48,53.48,120.2,50.79,119.5,48.33z"/>
	<path d="M440.09,166.08c-7.37-0.44-13.55-5.01-15.61-11.87c-2.07-6.86,0.39-14.41,6.48-18.16c8.34-5.13,16.8-10.1,25.44-14.71
		c7.52-4,16.8-0.97,21.07,6.32c4.37,7.44,2.43,17.11-4.9,21.69c-8.3,5.19-16.88,9.95-25.46,14.66
		C445.03,165.17,442.45,165.42,440.09,166.08z"/>
	<path d="M362.41,87.9c-12.52,0.11-20.51-13.02-14.46-24.04c4.45-8.12,9.13-16.12,13.9-24.06c4.55-7.58,13.99-9.98,21.75-5.77
		c7.59,4.11,10.81,13.73,6.67,21.47c-4.56,8.55-9.53,16.88-14.53,25.18C372.91,85.39,367.92,87.86,362.41,87.9z"/>
	<path d="M48.72,119.26c2.8,0.99,5.78,1.62,8.35,3.02c7.66,4.18,15.18,8.6,22.69,13.04c8.12,4.79,10.75,14.42,6.23,22.37
		c-4.46,7.84-14.25,10.45-22.45,5.84c-7.89-4.43-15.75-8.91-23.5-13.57c-6.61-3.97-9.34-11.51-7.14-18.78
		C34.94,124.43,41.23,119.88,48.72,119.26z"/>
	<path d="M423.88,361.18c-0.13-11.13,12.69-19.3,23.51-13.63c8.48,4.44,16.76,9.3,24.93,14.31c7.53,4.61,9.69,14.23,5.33,21.87
		c-4.26,7.47-13.95,10.43-21.64,6.24c-8.32-4.53-16.5-9.33-24.61-14.22C426.42,372.74,424.07,368.02,423.88,361.18z"/>
	<path d="M149.83,423.75c11.94,0.06,19.94,12.43,14.5,23.12c-4.48,8.82-9.55,17.36-14.81,25.75c-4.48,7.14-14.17,9.07-21.48,4.87
		c-7.28-4.18-10.43-13.55-6.47-21.04c4.63-8.75,9.65-17.3,14.82-25.75C139.36,425.87,144.16,423.76,149.83,423.75z"/>
	<path d="M361.66,423.63c6.61,0.12,11.47,2.54,14.6,7.77c4.69,7.86,9.29,15.78,13.74,23.78c4.55,8.2,1.76,17.95-6.17,22.37
		c-7.79,4.35-17.41,1.67-22.12-6.31c-4.6-7.79-9.22-15.58-13.53-23.52C342.23,436.77,349.92,423.74,361.66,423.63z"/>
	<path d="M32.26,374.14c0.17-4.52,2.63-9.27,7.71-12.33c7.93-4.77,15.96-9.4,24.05-13.9c7.85-4.35,17.45-1.61,21.94,6.03
		c4.46,7.59,2.11,17.41-5.55,22.05c-8.01,4.85-16.08,9.63-24.34,14.05C45.17,395.91,32.2,387.89,32.26,374.14z"/>
</g>
</svg>
