<?xml version="1.0" encoding="utf-8"?>
<!-- Generator: Adobe Illustrator 26.0.0, SVG Export Plug-In . SVG Version: 6.00 Build 0)  -->
<svg version="1.1" id="Capa_1" fill="#EEEEEE"  xmlns="http://www.w3.org/2000/svg" xmlns:xlink="http://www.w3.org/1999/xlink" x="0px" y="0px"
	 viewBox="0 0 150 150" style="enable-background:new 0 0 150 150;" xml:space="preserve">
<g>
	<path d="M20.84,75.03c0-19.05-0.02-38.1,0.01-57.15c0.01-7.25,3.52-12.07,9.81-13.57C31.72,4.05,32.86,4,33.95,4
		C52.73,3.98,71.5,4.01,90.27,3.95c2.22-0.01,3.86,0.71,5.39,2.25c10.36,10.43,20.76,20.83,31.2,31.18c1.64,1.62,2.31,3.4,2.31,5.67
		c-0.04,29.68-0.01,59.37-0.04,89.05c-0.01,9.07-5.02,13.95-14.15,13.95c-26.72,0-53.45,0-80.17,0c-8.9,0-13.94-4.95-13.95-13.88
		C20.81,113.12,20.84,94.08,20.84,75.03z M87.43,12.32c-1.27,0-2.17,0-3.08,0c-16.37,0-32.74,0-49.11,0c-4.8,0-5.98,1.2-5.98,6.1
		c0,37.73-0.01,75.47,0,113.2c0,4.98,1.17,6.1,6.26,6.1c26.27,0,52.53,0,78.8,0c5.38,0,6.4-1.04,6.4-6.52c0-27.37,0-54.75,0-82.12
		c0-1.07,0-2.15,0-3.08c-0.53-0.21-0.7-0.33-0.87-0.33c-6.01-0.02-12.02-0.05-18.03-0.05c-9.49-0.01-14.36-4.83-14.39-14.29
		C87.42,25.13,87.43,18.94,87.43,12.32z M95.92,18.93c0,5.05-0.21,9.84,0.14,14.58c0.09,1.26,1.79,3.37,2.87,3.44
		c5.06,0.37,10.16,0.16,15.18,0.16C108.08,31.09,102.17,25.17,95.92,18.93z"/>
	<path d="M75.07,71.14c-7.94,0-15.87,0.01-23.81,0c-3.45,0-5.39-1.51-5.39-4.15c-0.01-2.65,1.93-4.17,5.37-4.18
		c15.87-0.01,31.75-0.01,47.62,0c3.39,0,5.33,1.61,5.24,4.29c-0.08,2.56-1.96,4.03-5.22,4.04C90.95,71.15,83.01,71.14,75.07,71.14z"
		/>
	<path d="M74.68,87.79c-7.84,0-15.69,0.01-23.53,0c-3.4-0.01-5.34-1.6-5.27-4.27c0.06-2.56,1.95-4.06,5.2-4.06
		c15.97-0.01,31.93-0.01,47.9,0c3.21,0,5.12,1.56,5.14,4.13c0.02,2.58-1.89,4.19-5.07,4.2C90.92,87.8,82.8,87.79,74.68,87.79z"/>
	<path d="M75.05,104.43c-7.94,0-15.87,0.01-23.81,0c-3.44,0-5.38-1.53-5.38-4.17c0-2.64,1.94-4.16,5.39-4.16
		c15.87-0.01,31.75-0.01,47.62,0c3.26,0,5.14,1.48,5.23,4.03c0.09,2.68-1.86,4.29-5.24,4.3C90.93,104.44,82.99,104.43,75.05,104.43z
		"/>
	<path d="M66.97,112.75c5.16,0,10.33-0.02,15.49,0.01c3.16,0.01,5.06,1.66,5,4.25c-0.06,2.48-1.91,4.06-4.91,4.07
		c-10.61,0.02-21.21,0.02-31.82,0c-2.98-0.01-4.84-1.63-4.87-4.11c-0.03-2.5,1.83-4.18,4.77-4.2
		C56.08,112.72,61.53,112.75,66.97,112.75z"/>
</g>
</svg>
