<?xml version="1.0" encoding="utf-8"?>
<!-- Generator: Adobe Illustrator 26.0.0, SVG Export Plug-In . SVG Version: 6.00 Build 0)  -->
<svg version="1.1" id="Capa_1" fill="#EEEEEE" xmlns="http://www.w3.org/2000/svg" xmlns:xlink="http://www.w3.org/1999/xlink" x="0px" y="0px"
	 viewBox="0 0 100 100" style="enable-background:new 0 0 100 100;" xml:space="preserve">
<path style="fill:#ccc;" d="M84.22,2.46C67.24,2.49,50.26,2.55,33.29,2.61c-0.85,0-1.7,0.04-2.53,0.16
	c-3.38,0.47-5.83,2.14-6.95,5.5c-1.13,3.38-0.53,6.31,2.06,8.85c4.41,4.34,8.76,8.74,13.14,13.12C29.46,39.73,17.43,51.73,9.8,59.3
	c-1.39,1.38-2.67,2.83-3.85,4.39c-6.28,8.27-5.32,20.49,2.25,28.06c7.57,7.57,20.11,8.89,27.98,2.16
	c9.6-8.2,22.95-22.04,33.57-32.91c4.43,4.42,8.86,8.84,13.27,13.27c2.49,2.5,5.41,3.03,8.66,1.87c3.9-1.39,5.65-4.22,5.67-9.24
	c0.07-17.06,0.12-34.12,0.15-51.19C97.51,7.33,92.62,2.45,84.22,2.46z"/>
</svg>
