<?xml version="1.0" encoding="utf-8"?>
<!-- Generator: Adobe Illustrator 26.0.0, SVG Export Plug-In . SVG Version: 6.00 Build 0)  -->
<svg version="1.1" id="Capa_1" fill="#EEEEEE" xmlns="http://www.w3.org/2000/svg" xmlns:xlink="http://www.w3.org/1999/xlink" x="0px" y="0px"
	 viewBox="0 0 150 150" style="enable-background:new 0 0 150 150;" xml:space="preserve">
<g>
	<path d="M87.68,106.88c4.34-1.06,8.33-1.71,12.1-3.02c11.55-3.99,17.96-13.22,18.77-26.21c0.5-7.96-0.71-15.34-6.01-21.68
		c-0.49-0.58-0.56-1.82-0.36-2.63c1.23-4.75,0.82-9.37-0.47-14.04c-0.6-2.19-1.85-2.9-3.7-2.2c-4.65,1.76-9.19,3.81-13.84,5.59
		c-1.38,0.53-3.06,0.98-4.44,0.69c-9.98-2.09-19.9-2.08-29.88,0.04c-1.3,0.28-2.89-0.17-4.19-0.67c-4.73-1.81-9.36-3.88-14.09-5.67
		c-1.94-0.74-3.13,0.21-3.69,2.29c-1.24,4.67-1.63,9.31-0.38,14.06c0.22,0.85-0.01,2.14-0.54,2.84
		c-14.15,18.81-3.71,45.34,19.5,49.44c1.75,0.31,3.5,0.59,4.99,0.84c-1.1,2.85-2.12,5.62-3.28,8.34c-0.24,0.56-0.91,1.08-1.5,1.33
		c-6.97,3.01-14.13,0.89-18.32-5.56c-2.39-3.68-5.31-6.57-9.76-7.37c-1.31-0.24-2.73,0.11-4.1,0.18c-0.14,0.3-0.27,0.6-0.41,0.91
		c0.87,0.87,1.62,1.93,2.64,2.57c3.56,2.25,5.94,5.44,7.47,9.26c2.83,7.08,8.2,10.38,15.6,10.6c2.57,0.08,5.14-0.23,7.99-0.38
		c0,3.87,0.13,7.8-0.05,11.72c-0.11,2.44-2.24,3.48-5.06,2.57c-7.32-2.34-14.05-5.87-20.06-10.65C13.9,115.21,4.64,95.74,6.3,71.88
		c2.09-30.01,23.29-53.99,52.83-61.03c36.62-8.73,73.62,13.49,82.76,49.94c8.44,33.68-10.52,68.13-44.24,79.73
		c-3.92,1.35-5.89-0.1-5.88-4.2c0-4.93,0.03-9.86,0.1-14.8C91.95,116.24,91.58,111.1,87.68,106.88z"/>
</g>
</svg>
