<?xml version="1.0" encoding="utf-8"?>
<!-- Generator: Adobe Illustrator 26.0.0, SVG Export Plug-In . SVG Version: 6.00 Build 0)  -->
<svg version="1.1" id="Capa_1" fill="#EEEEEE" xmlns="http://www.w3.org/2000/svg" xmlns:xlink="http://www.w3.org/1999/xlink" x="0px" y="0px"
	 viewBox="0 0 150 150" style="enable-background:new 0 0 150 150;" xml:space="preserve">
<g>
	<path d="M138.64,75.18c0,16.65,0.01,33.3,0,49.95c0,8.08-5.45,13.51-13.56,13.51c-33.38,0.01-66.77,0.01-100.15,0
		c-8.12,0-13.57-5.42-13.57-13.5c-0.01-33.47-0.01-66.93,0-100.4c0-7.92,5.49-13.38,13.43-13.38c33.47-0.01,66.93-0.01,100.4,0
		c7.95,0,13.44,5.46,13.44,13.37C138.65,41.55,138.64,58.37,138.64,75.18z M81.4,119.55c0-1.25,0-2.14,0-3.04
		c0-9.77-0.01-19.55,0.01-29.32c0-1.23,0-2.51,0.31-3.69c1.25-4.74,5.71-7.66,10.55-7.05c4.43,0.56,8.07,4.57,8.1,9.26
		c0.08,10.27,0.04,20.54,0.04,30.82c0,0.89,0,1.79,0,2.88c1.02,0.06,1.83,0.14,2.63,0.14c4.64,0.01,9.28-0.1,13.92,0.05
		c2.1,0.07,2.64-0.62,2.62-2.66c-0.09-10.77,0-21.54-0.08-32.31c-0.02-2.38-0.24-4.83-0.84-7.12c-2.9-11.12-14.84-18.57-25.36-15.91
		c-4.68,1.19-8.48,3.84-11.94,8.1c0-2.82,0-4.99,0-7.27c-6.46,0-12.62,0-19.1,0c0,1.13,0,2.1,0,3.07c0,15.57-0.02,31.15,0.02,46.72
		c0.01,2.36-0.6,5.49,0.64,6.86c1.07,1.19,4.35,0.44,6.65,0.46C73.45,119.58,77.32,119.55,81.4,119.55z M49.45,62.28
		c-5.98,0-11.84-0.04-17.69,0.08c-0.45,0.01-1.25,1.17-1.25,1.81c-0.07,17.8-0.04,35.59-0.08,53.39c0,1.49,0.45,2.06,1.98,2.02
		c3.39-0.09,6.79-0.03,10.18-0.03c2.28,0,4.57,0,6.86,0C49.45,100.28,49.45,81.44,49.45,62.28z M28.66,40.08
		c0.04,6.34,5.07,11.37,11.36,11.35c6.26-0.02,11.35-5.1,11.41-11.37c0.06-6.37-5.1-11.46-11.55-11.4
		C33.49,28.72,28.62,33.68,28.66,40.08z"/>
</g>
</svg>
