<?xml version="1.0" encoding="utf-8"?>
<!-- Generator: Adobe Illustrator 26.0.0, SVG Export Plug-In . SVG Version: 6.00 Build 0)  -->
<svg version="1.1" id="Capa_1" fill="#76ABAE" xmlns="http://www.w3.org/2000/svg" xmlns:xlink="http://www.w3.org/1999/xlink" x="0px" y="0px"
	 viewBox="0 0 1000 1000" style="enable-background:new 0 0 1000 1000;" xml:space="preserve">
<g>
	<g>
		<g>
			<path d="M707.45,194.4c-5.34-6.65-12.23-11.94-20.8-15.91c-8.57-3.95-18.87-5.93-30.98-5.93
				s-22.41,1.99-30.98,5.93c-8.51,3.97-15.46,9.27-20.8,15.91c-5.34,6.62-9.25,14.54-11.8,23.72c-2.48,9.19-3.73,18.98-3.73,29.4
				v81.62c0,11.09,1.05,21.21,3.23,30.37c2.11,9.19,5.9,17.1,11.24,23.75c5.34,6.62,12.23,11.78,20.8,15.42
				c8.57,3.64,19.25,5.43,32.03,5.43c12.85,0,23.53-1.79,32.03-5.43c8.57-3.64,15.52-8.8,20.86-15.42
				c5.34-6.65,9.06-14.56,11.18-23.75c2.17-9.16,3.23-19.28,3.23-30.37v-81.62c0-10.43-1.24-20.22-3.73-29.4
				C716.7,208.94,712.78,201.02,707.45,194.4z"/>
		</g>
		<g>
			<g>
				<path d="M831.39,16.12H179.95c-40.25,0-72.88,32.63-72.88,72.88v822c0,40.25,32.63,72.88,72.88,72.88
					h640.1c40.25,0,72.88-32.63,72.88-72.88V77.66C892.93,43.67,865.38,16.12,831.39,16.12z M451.67,611.99H282.93v75.94H448.5
					v59.77H282.93v136.67h-70.46V552.22h239.2V611.99z M477.31,454.43h-82.76l-102-136.18H277.1v136.18h-70.53V122.27h70.53v136.18
					h15.46l98.77-136.18h79.59v2.84L355.57,284.08v8.55l121.74,158.96V454.43z M793.43,611.99h-89.71v212.58h89.71v59.8H543.49
					v-59.8h89.71V611.99h-89.71v-59.77h249.94V611.99z M793.43,325.37c0,44.3-12.17,77.98-36.56,101.07
					c-24.4,23.09-58.11,34.64-101.19,34.64s-76.79-11.56-101.19-34.64c-24.4-23.09-36.57-56.77-36.57-101.07v-74.03
					c0-43.03,12.17-76.41,36.57-100.13s58.11-35.58,101.19-35.58s76.79,11.86,101.19,35.58c24.4,23.72,36.56,57.1,36.56,100.13
					V325.37z"/>
			</g>
		</g>
	</g>
</g>
</svg>
