<?xml version="1.0" encoding="utf-8"?>
<!-- Generator: Adobe Illustrator 26.0.0, SVG Export Plug-In . SVG Version: 6.00 Build 0)  -->
<svg version="1.1" id="Capa_1" fill="#EEEEEE" xmlns="http://www.w3.org/2000/svg" xmlns:xlink="http://www.w3.org/1999/xlink" x="0px" y="0px"
	 viewBox="0 0 512 512" style="enable-background:new 0 0 512 512;" xml:space="preserve">
<g>
	<path d="M494.24,254.81c0,0.25,0,0.5,0,0.75c-0.21,1.17-0.59,2.34-0.6,3.51c-0.34,34.86-8.19,67.99-23.4,99.28
		c-46.79,96.27-148.73,150.04-254.26,132.28c-82.12-13.82-141.28-59.8-177.72-134.66c-10.94-22.48-17.28-46.45-20.28-71.26
		c-1.24-10.25,2.88-18.12,11.09-22.12c8.06-3.93,16.7-2.31,24.04,4.51c46.43,43.18,112.39,53.24,169.25,25.83
		c62.67-30.21,96.9-100.15,82.17-168.11c-6.01-27.72-19.03-51.78-38.51-72.38c-5.88-6.22-7.47-15.03-3.92-22.55
		c3.77-7.99,10.2-12.05,19.09-11.9c2.36,0.04,4.72,0.4,7.06,0.73c52.34,7.42,97.72,29.34,135.05,66.72
		c45.71,45.76,69.06,101.39,70.36,166.17C493.66,252.69,494.03,253.75,494.24,254.81z"/>
</g>
</svg>
